<svg xmlns="http://www.w3.org/2000/svg" viewBox="-465.6 -509.4 200 218.8"><path fill="#E0E6E6" d="M-465.6-509.4h200v218.8h-200z"/><path fill="#585D62" d="M-465.6-354.3h200v63.7h-200z"/><g fill="#7CA0A9"><path d="M-438.5-302.7c-2.4 0-4.3-1.9-4.3-4.4 0-2.4 1.8-4.4 4.3-4.4 1.5 0 2.5.5 3.3 1.3l-.7.7c-.7-.7-1.5-1.2-2.7-1.2-1.9 0-3.3 1.5-3.3 3.5s1.4 3.5 3.3 3.5c1.2 0 1.9-.4 2.7-1.2l.6.6c-.7 1-1.6 1.6-3.2 1.6zM-426.8-302.7c-2.6 0-4.3-2-4.3-4.4s1.8-4.4 4.3-4.4c2.6 0 4.3 2 4.3 4.4.1 2.4-1.7 4.4-4.3 4.4zm0-7.9c-1.9 0-3.3 1.6-3.3 3.5s1.4 3.5 3.3 3.5 3.3-1.6 3.3-3.5-1.3-3.5-3.3-3.5zM-411.3-311.3h.9v8.5h-.8l-5.5-7v7h-.9v-8.5h.9l5.3 6.8.1-6.8zM-402-307.5c1.9.4 2.8 1.1 2.8 2.4 0 1.5-1.2 2.4-2.9 2.4-1.3 0-2.4-.4-3.5-1.4l.6-.7c.9.8 1.7 1.2 2.9 1.2 1.1 0 1.9-.6 1.9-1.5 0-.8-.4-1.2-2.2-1.6-2-.4-2.8-1.1-2.8-2.5s1.2-2.3 2.8-2.3c1.2 0 2.1.4 3 1l-.6.7c-.8-.6-1.6-.9-2.4-.9-1.1 0-1.8.6-1.8 1.4-.1.9.4 1.4 2.2 1.8zM-387.4-306.4c0 2.5-1.4 3.8-3.5 3.8s-3.5-1.3-3.5-3.7v-5h1v4.9c0 1.8 1 2.9 2.6 2.9s2.6-.9 2.6-2.8v-5h1l-.2 4.9zM-382.3-311.3h1v7.6h4.8v.9h-5.7v-8.5h-.1zM-369.9-302.8h-1v-7.6h-2.8v-.9h6.7v.9h-2.8l-.1 7.6zM-361.3-311.3v8.5h-1v-8.5h1zM-349.7-311.3h.9v8.5h-.8l-5.5-7v7h-.9v-8.5h.9l5.3 6.8v-6.8h.1zM-339.5-302.7c-2.7 0-4.3-1.9-4.3-4.4 0-2.3 1.7-4.4 4.3-4.4 1.4 0 2.3.4 3.2 1.1l-.6.7c-.7-.6-1.4-1-2.6-1-1.9 0-3.2 1.6-3.2 3.5 0 2 1.3 3.5 3.4 3.5 1 0 1.9-.4 2.4-.8v-2.1h-2.6v-.7h3.5v3.4c-.9.6-2.1 1.2-3.5 1.2zM-330.9-302.8h-.4v-1.3h1.1v1.1c0 1-.4 1.5-1.3 1.7l-.1-.4c.5-.3.7-.6.7-1.1zM-318.7-311.3h1v7.6h4.8v.9h-5.7v-8.5h-.1zM-308.3-311.3h1v7.6h4.8v.9h-5.7v-8.5h-.1zM-294.5-302.7c-2.4 0-4.3-1.9-4.3-4.4 0-2.4 1.8-4.4 4.3-4.4 1.5 0 2.5.5 3.3 1.3l-.7.7c-.7-.7-1.5-1.2-2.7-1.2-1.9 0-3.3 1.5-3.3 3.5s1.4 3.5 3.3 3.5c1.2 0 1.9-.4 2.7-1.2l.6.6c-.7 1-1.6 1.6-3.2 1.6z"/></g><g fill="#E0E6E6"><path d="M-420.2-319.8h-1.3l-6.4-19.1-6.4 19.1h-1.3l-8-22.2h1.8l6.9 19.7 6.4-19.7h1.3l6.4 19.7 6.9-19.6h1.7l-8 22.1zM-384.2-319.9v-10.4h-14.1v10.4h-1.6v-22h1.6v10.2h14.1V-342h1.6v22h-1.6zM-350.3-319.9l-2.8-6.1h-13l-2.8 6.1h-1.7l10.3-22.2h1.6l10.3 22.2h-1.9zm-9.2-20.5l-5.8 12.8h11.7l-5.9-12.8zM-336.4-319.9v-22h1.6v20.5h13v1.5h-14.6zM-309.6-319.9v-22h1.6v20.5h13v1.5h-14.6z"/></g><path fill="#585D62" d="M-352.7-494.9l23 59.1 13.8-58.7h35.1l-32 123.2h-27l-25.8-67.2-25.8 67.1h-27l-32-123.2h35.7l13.8 58.7 23-59.1 25.2.1z"/><path fill="#F26341" d="M-365.8-415.9l-17.1 44.6h34.2z"/></svg>