<svg xmlns="http://www.w3.org/2000/svg" viewBox="323.2 381.2 153.1 36"><path fill="#E1E7E8" d="M323.2 381.2h47.2v36h-47.2z"/><path fill="#575C61" d="M349.8 384.6l5.4 13.9 3.3-13.8h8.3l-7.5 29.1h-6.4l-6.1-15.8-6.1 15.8h-6.4l-7.5-29.1h8.4l3.3 13.8 5.4-13.9h5.9z"/><path fill="#F26341" d="M346.7 403.6l-4 10.5h8.1z"/><g fill="#E1E7E8"><path d="M396.2 408.3h-.8l-4.1-12.2-4.1 12.2h-.8l-5.1-14.2h1.2l4.4 12.5L391 394h.8l4.1 12.6 4.4-12.5h1.1l-5.2 14.2zM419.2 408.2v-6.6h-9v6.6h-1v-14.1h1v6.5h9v-6.5h1v14.1h-1zM440.9 408.2l-1.8-3.9h-8.3l-1.8 3.9h-1.1l6.6-14.2h1l6.6 14.2h-1.2zm-5.9-13l-3.7 8.2h7.4l-3.7-8.2zM449.8 408.2v-14.1h1v13.1h8.3v1h-9.3zM467 408.2v-14.1h1v13.1h8.3v1H467z"/></g></svg>